<svg width="256" height="24" viewBox="0 0 256 24" xmlns="http://www.w3.org/2000/svg"><path d="M181.267276 0v17.0826579H184v3.0186814h-2.732724v3.8955047h-3.48671v-3.8955047H166v-2.4283317L180.97895 0h.288326zm-3.326472 7.5884698c0 .0214186-.13906.240959-.417181.6586214-.354667.5274326-.696576.99998-1.029555 1.414965l-4.70891 5.9034968c-.267914.348052-.621305.7349251-1.060174 1.1632968-.386562.3708091-.579205.5515284-.579205.5394805l.674889-.0829971c.54731-.0682717 1.044865-.1030768 1.495215-.1030768h5.464172v-7.0654549c0-.4377422.026792-.9732068.080374-1.601039.021689-.2034765.043377-.398921.06379-.5916883l.016585-.2356044zM244.204375 0c3.312875 0 6.097058 1.105615 8.349919 3.316845C254.85187 5.5975935 256 8.4933154 256 12.0066844c0 3.5040107-1.14813 6.3957219-3.445706 8.6751337C250.301433 22.8930481 247.51725 24 244.204375 24c-3.324712 0-6.108895-1.1069519-8.351234-3.3181818-2.308097-2.2794118-3.462803-5.171123-3.462803-8.6751337 0-3.513369 1.154706-6.409091 3.462803-8.6898396C238.09548 1.105615 240.879663 0 244.204375 0zM202.11284.2687166c5.378984 0 8.068476 2.3355615 8.068476 7.0053476 0 4.6497326-2.689492 6.9745989-8.068476 6.9745989h-4.721406v9.4812834H196V.2687165h6.11284zm18.541055 0c2.473806 0 4.412345.5842246 5.8143 1.7526738 1.458507 1.2005347 2.187103 2.9171123 2.187103 5.1537433 0 3.4237968-1.662356 5.5962566-4.987068 6.5173796l5.798518 10.0374332h-1.65578l-5.59993-9.7700535-.762789.0695187-5.582833.0160428v9.684492h-1.391434V.2687165h6.179913zm23.55048 1.0106952c-2.97225 0-5.446057 1.0227272-7.422735 3.065508-1.977993 2.0320855-2.965674 4.5868984-2.965674 7.6617647 0 3.065508.987681 5.6216577 2.965674 7.6644385 1.976678 2.0441176 4.450485 3.065508 7.422735 3.065508 2.970935 0 5.439481-1.0213904 7.405638-3.065508 1.976678-2.0427808 2.965674-4.5989305 2.965674-7.6644385 0-3.0748663-.988996-5.6296792-2.965674-7.6617647-1.966157-2.0427808-4.434703-3.065508-7.405638-3.065508zm-42.240147.236631h-4.572794v11.4852941h4.572794c4.528078 0 6.792775-1.907754 6.792775-5.7272727 0-3.8395722-2.264697-5.7580214-6.792775-5.7580214zm18.556836 0h-4.655648v11.2834225h4.655648c4.472842 0 6.709921-1.8743316 6.709921-5.6243316 0-3.7727273-2.237079-5.659091-6.709921-5.659091zM34.5718685.0008099v17.0750357c0 2.2786514-.6514808 4.0186878-1.9503364 5.2201094-1.1948377 1.133926-2.8440695 1.700889-4.9463269 1.700889-1.668393 0-3.105483-.3914744-4.3099013-1.1730734-1.0593406-.6803556-1.8914841-1.6212442-2.5019052-2.8240157l3.0343128-1.853429c.4721868.8396451.9539541 1.4565549 1.4494079 1.853429.6076838.4657195 1.3275975.6979044 2.155635.6979044 2.2172246 0 3.3272055-1.2297698 3.3272055-3.6906591V.0008099h3.7419086zM6.6037707 0c3.8390832 0 6.9377229 1.0839793 9.2931819 3.249238 2.3445096 2.1774079 3.5188174 5.0459707 3.5188174 8.6043385 0 3.5489183-1.1619899 6.4012822-3.4832324 8.5543917-2.3581962 2.1882072-5.4664165 3.2816358-9.328767 3.2816358H0V0h6.6037707zM44 .00054v23.688254h-3.7063235V.00054H44zM6.3634345 3.249913H3.742456V20.45859h2.6209784c3.0110456 0 5.3158642-.8045475 6.9130871-2.4136426 1.5055229-1.5078516 2.2582843-3.5718669 2.2582843-6.190696 0-2.6296284-.7527614-4.6990433-2.2582843-6.206895-1.5972228-1.5982955-3.9020414-2.3974434-6.913087-2.3974434zM146.16014 0c4.228879 0 7.395124 1.547107 9.498734 4.641321l-2.831887 2.0009606c-1.46603-2.242571-3.688763-3.3638564-6.666847-3.3638564-2.444736 0-4.463065.8249457-6.053633 2.4721674-1.581092 1.6485567-2.371638 3.7282742-2.371638 6.2378179 0 2.5001997.790546 4.5759126 2.371638 6.2231344 1.590568 1.6805934 3.608897 2.5228924 6.053633 2.5228924 1.579738 0 2.960486-.3377206 4.143598-1.0104918 1.101891-.6167071 2.057585-1.5083959 2.864375-2.673732L156 19.0004493c-2.206489 3.3304849-5.486443 4.9963947-9.83986 4.9963947-3.42209 0-6.298648-1.1212854-8.629676-3.3638564-2.375698-2.2986353-3.564225-5.179271-3.564225-8.6445771 0-3.4519574 1.188527-6.3219143 3.564225-8.6085357C139.861492 1.1266249 142.73805 0 146.16014 0zm-40.875557.2683076l5.355137 12.5797552c.295101.6380647.618629 1.5244142.971938 2.6563786.307284.9637716.460249 1.46835.460249 1.5137354 0-.068078.136721-.5606427.40881-1.4803638.353309-1.1319644.682252-2.0289927.989536-2.6897502L118.740108.2683076h3.598067L112.208628 23.928766h-.460249L101.34539.2683076h3.939193zM56.3925656.0320367l11.3397317 13.0843336L78.9881012.0320367h.3749679V23.69383h-3.5303833V11.5358917c0-.5272711.0230125-1.2387534.0676838-2.1357818l.0690374-1.2107214-.7336917 1.0425286c-.5347014.7515282-.9949507 1.3348636-1.380748 1.7486714l-5.9859488 7.0961352h-.4088098l-5.9697047-7.0961352c-.3749679-.4138078-.8176194-.9877991-1.3293084-1.7166347l-.7675335-1.0745652.0676837 1.2107213c.046025.8970284.0690374 1.6085107.0690374 2.1357818V23.69383H56V.0320367h.3925656zm36.9323028 0L103.726504 23.69383h-3.8363141l-1.7570695-4.2715638H88.0374156L86.2979438 23.69383h-3.5628714L92.8984609.0320367h.4264075zm36.1133296.2362709V23.69383h-3.665751V.2683076h3.665751zM93.035182 6.5755384l-.3763215 1.242758c-.2842717.921056-.5401162 1.655231-.7675335 2.2038599l-2.5909331 6.373974h7.503418l-2.5760426-6.373974c-.2382467-.548629-.4940912-1.262781-.7675335-2.1357818-.2612592-.7395145-.403395-1.1786846-.4250538-1.3108361z" fill="#FFF"/></svg>