<svg width="336" height="64" viewBox="0 0 336 64" xmlns="http://www.w3.org/2000/svg"><path d="M10.8235819 54.3987451h7.6389167c8.0026747 0 14.0938371-2.1045318 18.3697761-6.4928574 4.0013373-4.0190466 6.0020058-8.7730661 6.0020058-15.9040952 0-7.0413981-2.0006685-11.7954175-6.0020058-15.9076801-4.1832163-4.2054787-10.3671014-6.3996415-18.3697761-6.3996415h-7.6389167v44.7042742zM19.0972919 64H0V0h19.0972919C29.2825141 0 37.467068 2.9291356 43.7436755 8.7802364c6.183885 5.9407316 9.3649837 13.6203014 9.3649837 23.2215561 0 9.5976696-3.088376 17.3704555-9.2722611 23.1283403C37.5597904 61.0744496 29.3752368 64 19.0972919 64zm61.885211 0c-8.3664325 0-18.9154128-4.9368664-21.0979605-18.7435997l10.9127384-.093216c1.8187896 6.2203797 6.2766075 7.500308 9.732308 7.500308h.4529141c4.821576-.182847 10.1852224-4.4815416 10.1852224-10.2394264V0h11.1873397v42.6965437C102.173186 54.488376 92.7154797 64 80.9825029 64zm36.1939151 0H128V.0035852h-10.823582V64zM160 1.1247418h30.9251552c4.2946835 0 7.974368.7931828 11.1283835 2.1967716 3.1540154 1.4967015 5.6071384 3.6072576 7.3593693 6.3316681 1.6663371 2.7278593 2.5424523 5.9833575 2.5424523 9.7630461 0 2.9899544-.5256691 6.5075479-1.5770075 8.9698633-1.0513387 2.4623152-3.0681219 5.1005104-5.5212451 6.769643-2.3637936 1.6725813-3.6796845 2.2864357-6.4832538 3.4313778l14.8939616 24.095515h-12.0044987l-14.1037397-23.3057806h-16.8214155v23.3057806H160V1.1247417zm29.9631464 9.2354071h-19.6249848l.0893294 19.6950746h18.8347629c4.0301309 0 7.0982525-.7000702 9.3727168-2.458867 2.1920064-1.672581 3.3326744-4.5728713 3.3326744-7.7387054 0-3.2554982-.9654448-4.9280794-2.9787926-6.7730917-2.0167832-1.8484608-4.9955754-2.7244105-9.0257061-2.7244105zm74.3461206 43.3526146C259.5782443 61.8032285 250.9064197 64 243.8081672 64c-9.1974936 0-19.1852091-3.4279293-24.9675707-10.9045397l6.6584771-7.5593771h.0858936c4.1194603 4.8349667 12.7053909 8.7043195 18.3984232 8.6146552 6.4832539-.1724309 11.3036064-2.4588667 11.4788293-7.6490413 0-2.548531-3.2433448-7.124851-15.9453-11.6977224 0 0-4.9062461-2.020892-6.6584768-3.1658342-9.1116002-5.4488212-12.8806141-13.6289503-9.6372693-20.6641371 2.7142397-5.8040292 8.8470475-9.9354771 16.0311936-10.8183241 10.6886077-1.227709 18.9240925 5.103959 22.6037768 8.5318884l-6.0434781 7.5628258c-3.2433448-3.3417137-9.5513755-6.3316681-14.1071755-6.597212-2.1885707-.172431-4.7310232.882847-6.2187013 2.3760999-2.2779 2.1105561-2.8928987 5.4522698-1.2265616 8.0008008 2.1885706 2.993403 5.693032 4.7487511 9.7231629 6.2454526 8.0602616 2.9037388 17.9620836 8.0904649 20.9408756 13.1909753 1.662901 2.9899544 3.154015 7.8249211-.614999 14.2462534zm65.4019533-26.284192c-4.1598792-3.6571429-9.6181339-5.4857144-16.3711372-5.4857144-3.8842463 0-7.2136003.6382073-9.7994711 2.1046499V9.232493h28.3901776V0h-37.638383v36.0228571l1.2004532.6417928.1849641-.0932214c2.0346053-1.8285714 4.2541746-3.1982072 6.4737439-4.1160784C304.9260295 31.3582072 307.9797507 30.72 311.2148092 30.72c9.3425009 0 13.8723084 3.84 13.8723084 11.6096357 0 8.2285715-4.2541747 12.2550142-13.1324519 12.2550142-3.6086136 0-6.7493767-.9178712-9.3388742-2.5635854-2.2195694-1.369636-4.0692105-3.2914288-5.5489233-5.7582074l-.0942955-.2760784L288 50.6514285l.1885909.3657144c2.0309784 3.84 5.178995 7.0382072 9.2482055 9.3257142C301.6873442 62.72 306.5907065 64 311.9546657 64c7.1229316 0 12.9474876-1.9217928 17.2923308-5.7617928C333.7804307 54.3085715 336 48.9124931 336 42.24c0-6.0342856-2.1252739-11.0610645-6.2887797-14.8114285" fill="#FFF"/></svg>