<svg width="150" height="24" viewBox="0 0 150 24" xmlns="http://www.w3.org/2000/svg" xmlns:xlink="http://www.w3.org/1999/xlink"><defs><path d="M34.5718685.00081v17.0772814c0 2.278951-.6514808 4.0192163-1.9503364 5.2207959C31.4266944 23.4329624 29.7774626 24 27.6752052 24c-1.668393 0-3.105483-.3915259-4.3099013-1.1732277-1.0593406-.6804451-1.8914841-1.6214574-2.5019052-2.8243871l3.0343128-1.8536728c.4721868.8397556.9539541 1.4567465 1.4494079 1.8536728.6076838.4657808 1.3275975.6979962 2.155635.6979962 2.2172246 0 3.3272055-1.2299315 3.3272055-3.6911445V.0008101h3.7419086zM6.6037707 0c3.8390832 0 6.9377229 1.0841218 9.2931819 3.2496653 2.3445096 2.1776943 3.5188174 5.0466343 3.5188174 8.6054701 0 3.5493851-1.1619899 6.4021241-3.4832324 8.5555168-2.3581962 2.188495-5.4664165 3.2820674-9.328767 3.2820674H0V0zM44 .00054v23.6913696h-3.7063235V.00054H44zM6.3634345 3.2503403H3.742456v17.2109403h2.6209784c3.0110456 0 5.3158642-.8046533 6.9130871-2.41396 1.5055229-1.5080499 2.2582843-3.5723366 2.2582843-6.1915102 0-2.6299742-.7527614-4.6996613-2.2582843-6.2077112-1.5972229-1.598506-3.9020415-2.3977589-6.9130871-2.3977589z" id="a"/></defs><g fill="#FFF" fill-rule="evenodd"><use xlink:href="#a"/><path d="M54 24h3.5534944l1.7342348-4.3328632h10.06531L71.1034693 24h3.8261134L64.5579137 0H64.13279L54 24zm6.5455556-7.402426l2.5844822-6.4654442c.2267327-.5565022.481807-1.301213.7652227-2.2341326l.373839-1.2619464c.0229432.135402.1646511.5795204.4251237 1.3296474.2712694.8868829.5263436 1.6099294.7652227 2.1664316l2.5669374 6.4654442h-7.4808277zM78.3535156 24h3.6547143V.2383075h-3.6547143V24zm9.3378761 0h3.6898039v-8.8011283h4.2836275L100.7825028 24H105l-5.5765434-9.3982511c3.2066474-1.1143582 4.8113207-3.3836953 4.8113207-6.8066572 0-2.5130607-.8273042-4.4235825-2.4832623-5.7315656C100.2440128.8476164 98.2047686.2383075 95.6310831.2383075h-7.9396914V24zm3.6898039-11.9058956V3.497433h4.1149276c3.2970706 0 4.9462807 1.4325529 4.9462807 4.2976587 0 2.8664598-1.6492101 4.2990127-4.9462807 4.2990127h-4.1149276zM123.696315 24c2.5004705 0 4.5358904-.6888802 6.107577-2.0679757 1.6375579-1.4471826 2.4556781-3.3869945 2.4556781-5.819436 0-2.0746509-.6639816-3.7728208-1.9906274-5.0958447-1.2726315-1.2669522-2.9273159-2.0025588-4.9627358-2.2041497 0 .0226956.1383296-.1121433.4149886-.4031819.354387-.3471102.6797907-.716916.9788459-1.1094176l5.1287311-6.7112421V.2696779h-14.788083v3.2121044h7.2366094c.3425302 0 .7575187-.0226957 1.2449656-.068087l.6297286-.066752-.4136711.4205374c-.3214514.3257495-.5809839.616788-.7812324.8744507l-5.3263447 6.9635645.1659954.3190744c.3649264-.1455193.8062634-.2696779 1.3266459-.3698059.6534422-.1241586 1.3174238-.1855704 1.9919448-.1855704 3.651899 0 5.4765311 1.5366301 5.4765311 4.6085553 0 3.1506926-1.68762 4.7260389-5.0615425 4.7260389-1.305567 0-2.4451387-.3417701-3.418715-1.0266452-.8405164-.5820771-1.5268943-1.3790955-2.057816-2.3870501L115 18.9041553c.6969172 1.5139345 1.808823 2.7301552 3.3357172 3.6499972C119.9284827 23.5180508 121.716227 24 123.696315 24m19.4649377-.033376c2.0143411 0 3.651899-.5380208 4.9126736-1.6153974C149.3570972 21.241809 150 19.7839462 150 17.9789731c0-2.9370862-1.8483457-5.2587194-5.5437197-6.9622295l-2.1408137-.9932692c-2.6783228-1.2549368-4.0168254-2.863659-4.0168254-4.8261667 0-2.6353674 1.4386268-3.9530511 4.3158806-3.9530511 1.1725072 0 2.1790191.2803582 3.0195355.8410747.6534422.4485731 1.2555049 1.1214329 1.8101404 2.0185793l1.0947792-.7235913c-.631046-1.01997-1.3661685-1.804973-2.2080024-2.3536741C145.2796703.34177 144.0412918 0 142.6145218 0c-1.6046223 0-2.9378553.4659287-3.9996989 1.396451-1.1184929.986594-1.6770806 2.2642265-1.6770806 3.8342326 0 2.5112088 1.609892 4.524448 4.8296759 6.0383824l2.1408138.9919342c3.1539128 1.4792234 4.7308691 3.3856594 4.7308691 5.7179729 0 1.4458475-.5427786 2.6073316-1.6270184 3.4817823-1.0289081.851755-2.3239358 1.2776325-3.8837656 1.2776325-1.6928897 0-3.1091204-.4138621-4.248692-1.2442565-.873452-.6394838-1.6322882-1.5700061-2.2738736-2.791567l-1.1949035.5887523c.6534423 1.3563998 1.5374337 2.4271013 2.6559266 3.2121043 1.383295.9745787 3.0814544 1.463203 5.0944781 1.463203"/></g></svg>