<svg data-name="图层_1" xmlns="http://www.w3.org/2000/svg" viewBox="0 0 2810.01 240"><path fill="#fff" d="M439.41.01H480V240h-40.59z"/><path d="M341.88 157.72v1.37c0 21.59-20.11 37.71-38.19 38.4h-1.7c-12.96 0-29.68-4.8-36.5-28.13l-40.92.35c8.18 51.78 47.74 70.29 79.12 70.29 44 0 79.47-35.67 80.15-79.89V0h-41.95v157.72zM164.04 32.93C140.5 10.98 109.81 0 71.61 0H0v240h71.61c38.54 0 69.23-10.97 92.77-33.26 23.19-21.59 34.77-50.74 34.77-86.73s-11.93-64.8-35.12-87.08zm-25.92 146.72C122.09 196.11 99.24 204 69.23 204H40.58V36.35h28.65c30.01 0 53.2 8.23 68.89 24 15.01 15.42 22.51 33.25 22.51 59.65s-7.5 44.57-22.51 59.64zm1802.6-138.62h78.62v198.62h42.04V41.03H2140V.34h-199.28v40.69zm-611.53 159.65c-44.79 0-81.02-36.24-81.02-81.02s36.23-81.03 81.02-81.03c23.24 0 44.44 10.26 59.13 25.98l30.08-24.62C1396.52 15.72 1364.39 0 1329.19 0c-65.98 0-119.64 53.67-119.64 119.66s53.66 119.66 119.64 119.66c39.99 0 75.54-19.83 97.08-49.91l-29.75-24.62c-14.69 21.53-39.3 35.89-67.33 35.89zM1159.91.34l-64.95 100.17L1030.36.34h-49.91l94.35 141.88v97.43h40.67v-97.43L1209.81.34h-49.9zM856.6.34h-40.67v239.31h187.32v-36.24H856.6V.34zM600 239.65h40.67V137.77h118.28v-35.89H640.67V36.24h138.79V.34H600v239.31zM2801.78 66.51c-5.15-14.4-12.69-27.08-21.94-37.36C2761.66 9.95 2738.7 0 2711.62 0s-50.38 9.95-68.56 29.15c-9.25 10.29-16.79 22.96-21.94 37.36-5.48 15.77-8.23 33.95-8.23 53.49s2.74 37.71 8.23 53.49c5.15 14.75 12.69 27.09 21.94 37.38 18.18 19.2 41.14 29.14 68.56 29.14s50.05-9.94 68.22-29.14c9.25-10.29 16.79-22.63 21.94-37.38 5.48-15.77 8.23-33.6 8.23-53.49s-2.74-37.71-8.23-53.49zm-49.03 118.98c-9.93 13.36-24 20.22-41.14 20.22s-31.54-6.86-41.82-20.22c-11.31-15.09-17.14-37.03-17.14-65.49s5.83-50.41 17.14-65.48c10.28-13.38 24.34-20.24 41.82-20.24s31.2 6.86 41.14 20.24c11.66 15.07 17.49 37.03 17.49 65.48s-5.83 50.41-17.49 65.49zM2551.61 29.15C2533.45 9.95 2510.48 0 2483.4 0s-50.4 9.95-68.56 29.15c-9.26 10.29-16.8 22.96-21.94 37.36-5.49 15.77-8.23 33.95-8.23 53.49s2.74 37.71 8.23 53.49c5.14 14.75 12.68 27.09 21.94 37.38 18.16 19.2 41.14 29.14 68.56 29.14s50.05-9.94 68.21-29.14c9.26-10.29 16.8-22.63 21.94-37.38 5.48-15.77 8.23-33.6 8.23-53.49s-2.74-37.71-8.23-53.49c-5.14-14.4-12.68-27.08-21.94-37.36zm-27.08 156.34c-9.95 13.36-24 20.22-41.14 20.22s-31.54-6.86-41.82-20.22c-11.32-15.09-17.14-37.03-17.14-65.49s5.82-50.41 17.14-65.48c10.28-13.38 24.33-20.24 41.82-20.24s31.19 6.86 41.14 20.24c11.66 15.07 17.48 37.03 17.48 65.48s-5.82 50.41-17.48 65.49zm-264.54-148.8h40.45V240h40.8V0h-81.25v36.69zm-379.85 96.29c9.57-6.49 17.44-16.75 21.54-26.32 4.1-9.57 6.15-23.25 6.15-34.89 0-14.69-3.42-27.34-9.92-37.94-6.84-10.59-16.41-18.8-28.71-24.62-12.31-5.47-26.66-8.54-43.41-8.54h-120.67v239.32h40.34v-90.6h65.63l55.04 90.6h46.83l-58.11-93.68c10.94-4.45 16.07-6.84 25.3-13.34zm-134.33-19.82l-.35-76.58h76.57c15.72 0 27.35 3.42 35.22 10.59 7.85 7.19 11.62 13.69 11.62 26.33s-4.45 23.6-12.99 30.09c-8.89 6.84-20.86 9.57-36.58 9.57h-73.49zM1564.46 0h-15.39l-5.47 12.31-103.57 227.01h40.67l25.64-59.15h100.83l25.65 59.15h40.67L1569.57 12.31 1564.45 0zm-43.07 144.27l35.2-74.88 35.55 74.88h-70.75z" fill-rule="evenodd" fill="#fff"/></svg>