<svg width="755" height="64" viewBox="0 0 755 64" xmlns="http://www.w3.org/2000/svg"><path d="M291.393192 10.9408775h21.023124V63.904004h11.242198V10.9408775h21.023124V.0906629h-53.288446zM265.695596 0h-4.114495l-1.461273 3.2825299-27.692179 60.5334778h10.874213l6.855715-15.7726762h26.961543l6.855714 15.7726762h10.874214L267.063539 3.2825299 265.695596 0zm-11.516853 38.4703971l9.412941-19.9671681 9.50627 19.9671681h-18.919211zM213.092454 5.6530978l-21.11112 17.591267-21.113787-17.591267-6.759718-5.562435h-4.114495V63.904004h10.874213V19.6925128l21.113787 17.591267 21.11112-17.591267V63.904004h10.879547V.0906629h-4.114495zm188.133495 29.806758c2.559893-1.7305945 4.663806-4.4664805 5.75976-7.0183742 1.095954-2.5518937 1.645265-6.1997417 1.645265-9.3036123 0-3.9171702-.914629-7.2903629-2.653223-10.1169118-1.829257-2.8238824-4.386484-5.0131245-7.677014-6.5650598-3.290529-1.458606-7.127703-2.2772385-11.604849-2.2772385h-32.265323v63.8186742h10.783551V39.8383401h17.548602l14.71672 24.1589933h12.519479l-15.53802-24.9802924c2.925212-1.1866173 4.298488-1.8212575 6.765052-3.5571852zm-35.918503-5.2851131l-.09333-20.4204825h20.473814c4.205158 0 7.311695.911962 9.415607 2.8238824 2.101246 1.9172534 3.106538 3.6505145 3.106538 7.0210408 0 3.2825299-1.189284 6.2930711-3.474522 8.0236656-2.375901 1.8239241-5.575768 2.5518937-9.780926 2.5518937h-19.647181zm156.452147 6.1970751h30.980043v-9.3862755h-30.980043V9.6635973h34.270572V.090663h-45.150118v63.813341h46.430065v-9.2982792h-35.550519zM421.651765.0906629h10.8768801v63.8160077H421.651765zM475.52952 53.512437c-11.970168 0-21.660431-9.6635974-21.660431-21.6044332 0-11.8501729 9.687596-21.6070997 21.660431-21.6070997 6.215741 0 11.882171 2.735886 15.812674 6.9277114l8.042332-6.5650598C493.536769 4.1944919 484.945127 0 475.52952 0c-17.639265 0-31.988001 14.3114037-31.988001 31.9080038 0 17.5939336 14.351402 31.9080039 31.988001 31.9080039 10.695554 0 20.201825-5.2877797 25.956251-13.3087788l-7.949002-6.5650598c-3.933169 5.7410941-10.511562 9.5702679-18.007249 9.5702679zM117.171118.0026666h10.823549v63.9946669h-10.823549zM91.1642015 42.0569143v.3653181c0 5.7570935-5.3624432 10.055581-10.1835757 10.2395734h-.4533144c-3.455856 0-7.9143369-1.2799467-9.7329278-7.5010208l-10.9115454.0933294c2.1812425 13.8074247 12.7301363 18.743219 21.0977876 18.743219 11.7328445 0 21.1911172-9.5116036 21.3724432-21.3031123V0H91.166868v42.0569143h-.0026665zM43.7421774 8.7809675C37.4651056 2.927878 29.2814466 0 19.0952044 0H0v63.9973334h19.0952044c10.2769051 0 18.4605641-2.9252114 24.7376359-8.8689637 6.1837423-5.7570935 9.2716154-13.530103 9.2716154-23.1270364.0026648-9.6022666-3.1785359-17.2819466-9.3622783-23.2203658zm-6.911712 39.1237031c-4.2744886 4.3864839-10.367568 6.4930628-18.3699013 6.4930628H10.823549V9.6929294h7.6396817c8.0023332 0 14.1860756 2.1945753 18.3699013 6.3997334 4.0024998 4.1118287 6.0024165 8.8662972 6.0024165 15.9060039-.0026665 7.1330361-2.0025832 11.8875047-6.0050831 15.9060039zM685.800758 7.7730095C680.963627 2.6532228 674.843882 0 667.630849 0c-7.306363 0-13.426108 2.6532228-18.263239 7.7730095-2.466564 2.7438856-4.477147 6.1224115-5.84509 9.9622515-1.461273 4.2051581-2.191909 9.0529562-2.191909 14.2634057 0 5.303779.730636 10.055581 2.191909 14.2634057 1.367943 3.9331695 3.375859 7.223699 5.84509 9.9675847C654.204741 61.3494438 660.324486 64 667.630849 64c7.213033 0 13.332778-2.6505562 18.169909-7.7703429 2.466564-2.7438857 4.477147-6.0344152 5.84509-9.9675847 1.461273-4.2051581 2.191909-8.9596267 2.191909-14.2634057 0-5.2104495-.730636-10.055581-2.191909-14.2634057-1.367943-3.83984-3.378526-7.2183659-5.84509-9.9622515zm-7.213032 41.6889296c-2.650557 3.5625182-6.391734 5.3917753-10.956877 5.3917753-4.658473 0-8.39965-1.8292571-11.140869-5.3917753-3.015875-4.0238324-4.565144-9.8742553-4.565144-17.4632724 0-7.5863505 1.549269-13.4421066 4.565144-17.4606058 2.738552-3.5678513 6.482396-5.3971084 11.140869-5.3971084 4.565143 0 8.308987 1.8292571 10.956877 5.3971084 3.10387 4.0184992 4.655806 9.8742553 4.655806 17.4606058 0 7.5890171-1.549269 13.4421066-4.655806 17.4632724zm73.855589-31.7266781c-1.37061-3.83984-3.381193-7.2210324-5.84509-9.9622515C741.758427 2.6532228 735.641348 0 728.425649 0c-7.306362 0-13.420774 2.6532228-18.263239 7.7730095-2.463897 2.7438856-4.471814 6.1224115-5.84509 9.9622515-1.461272 4.2051581-2.191909 9.0529562-2.191909 14.2634057 0 5.303779.730637 10.055581 2.191909 14.2634057 1.37061 3.9331695 3.381193 7.223699 5.84509 9.9675847C715.004875 61.3494438 721.119287 64 728.425649 64c7.215699 0 13.332778-2.6505562 18.172576-7.7703429 2.463897-2.7438857 4.471814-6.0344152 5.84509-9.9675847 1.461272-4.2051581 2.191909-8.9596267 2.191909-14.2634057 0-5.2104495-.730637-10.055581-2.191909-14.2634057zm-13.060789 31.7266781c-2.64789 3.5625182-6.391734 5.3917753-10.956877 5.3917753-4.655806 0-8.39965-1.8292571-11.140869-5.3917753-3.010541-4.0238324-4.565143-9.8742553-4.565143-17.4632724 0-7.5863505 1.554602-13.4421066 4.565143-17.4606058 2.738552-3.5678513 6.485063-5.3971084 11.140869-5.3971084 4.565143 0 8.311654 1.8292571 10.956877 5.3971084 3.10387 4.0184992 4.658476 9.8742553 4.658476 17.4606058.002663 7.5890171-1.551939 13.4421066-4.658476 17.4632724zM626.893879 0h-1.27728l-41.640931 46.8087163v6.9490438h32.598641v10.2395733h10.31957V53.7577601h7.487688v-8.6823049h-7.487688V0zm-10.31957 45.0754552l-19.812507.3653181 20.089829-23.7696763-.277322 23.4043582z" fill="#FFF"/></svg>