<svg width="248" height="24" viewBox="0 0 248 24" xmlns="http://www.w3.org/2000/svg" xmlns:xlink="http://www.w3.org/1999/xlink"><defs><path d="M55.8723858 11.9579463h-4.0673901v-8.477499h4.0673901c3.2603153 0 4.8904729 1.4138065 4.8904729 4.2374144 0 2.826278-1.6301576 4.2400846-4.8904729 4.2400846M33.6796972 0c3.6645196 0 6.425916 1.0413306 8.2855229 3.1279969L39.5279877 5.583134c-.7163622-.7636424-1.5060949-1.328364-2.369198-1.699505-.9858318-.4031818-2.1450847-.6047727-3.4790925-.6047727-2.4305624 0-4.4302402.8237192-5.9990335 2.4724926-1.5354431 1.6487735-2.3024976 3.7287646-2.3024976 6.2386383 0 2.5245592.7897326 4.5992101 2.370532 6.2239528 1.6354937 1.6808144 3.7699063 2.5218891 6.4019038 2.5218891 2.363862 0 4.2794973-.5046448 5.74824-1.5139345v-4.3709184h-6.2858451v-3.1800634h9.6302029v9.3332592c-.8964533.8090338-2.0570402 1.4765534-3.4790926 2.0012238C38.0272289 23.6675752 36.1556158 24 34.1506019 24c-3.6405075 0-6.6326872-1.1214329-8.973871-3.3642988-2.3411839-2.2535462-3.5124428-5.1358959-3.5124428-8.645714 0-3.4978027 1.1365747-6.366802 3.4110582-8.611003C27.3164795 1.1267732 30.1845965 0 33.6796972 0zm64.3375996.000534c3.0362022 0 5.2373152 1.2282361 6.6046732 3.6820382l-2.857445 1.7675919c-.863103-1.5272849-2.1117345-2.2895923-3.7472282-2.2895923-2.0170199 0-3.0255299.9091617-3.0255299 2.724815 0 1.4031263 1.1259027 2.5953163 3.377708 3.5819103l1.5127649.6902153c2.1290762.9412026 3.6525132 1.9184513 4.5716452 2.9264059C105.483739 14.2614229 106 15.7419814 106 17.5255938c0 2.0052289-.71236 3.6032709-2.134413 4.7914558-1.400708 1.1214329-3.221629 1.6821494-5.4614279 1.6821494-2.0957264 0-3.8993051-.4819492-5.41207-1.4471825-1.3099958-.8183791-2.3185057-1.9504923-3.0241959-3.3963398l2.9908457-1.6661289c.6496618 1.0653613 1.3273378 1.839684 2.033028 2.3216332.9191314.6394837 2.034362.9585581 3.3443578.9585581 2.7000323 0 4.0500483-1.0707014 4.0500483-3.2121043 0-.9425377-.330834-1.7328809-.991168-2.3696947-.549611-.5046448-1.5234372-1.0666963-2.9241455-1.6834844l-1.5461152-.6902153c-1.859607-.8290593-3.2042869-1.7155254-4.0327058-2.656728-.9644877-1.0987373-1.4460646-2.5005285-1.4460646-4.2040385 0-1.738221.6109757-3.162708 1.8315929-4.2721255C94.5101901.5612504 96.0896554.000534 98.0172968.000534zM56.0071206.2670078c2.542619 0 4.5596389.6007677 6.0497258 1.800968 1.6354936 1.2896478 2.4532405 3.1733882 2.4532405 5.649886 0 3.3763141-1.5848014 5.6125048-4.7557382 6.7125771l5.5121206 9.2665072h-4.1674406l-5.0585579-8.6777549h-4.2354751v8.6777549h-3.6458435V.2670078zM10.4359437.033109l10.2518506 23.66357H16.905882l-1.7302083-4.2721255H5.2266429L3.5124428 23.696679H0L10.0157312.033109h.4202125zm67.8318999 0l10.2505166 23.66357h-3.7805783l-1.7315423-4.2721255h-9.9490308l-1.7142001 4.2721255h-3.5111088L77.8476311.033109h.4202125zM10.150466 6.5761362l-.3695202 1.2442565c-.2801416.919842-.5322691 1.6541136-.7563824 2.2028147l-2.5546251 6.3734773h7.3944057l-2.537283-6.3734773c-.2361194-.548701-.4882469-1.261612-.7563825-2.1373978-.2574635-.7382766-.3975343-1.1761695-.4202125-1.3096734zm67.8318999 0l-.3708542 1.2442565c-.2801416.919842-.5322691 1.6541136-.7550484 2.2028147l-2.5546251 6.3734773h7.3944057l-2.538617-6.3734773c-.2347854-.548701-.4869129-1.261612-.7563825-2.1373978-.2574635-.7382766-.3975343-1.1761695-.4188785-1.3096734z" id="a"/><path d="M34.5718685.00081v17.0772814c0 2.278951-.6514808 4.0192163-1.9503364 5.2207959C31.4266944 23.4329624 29.7774626 24 27.6752052 24c-1.668393 0-3.105483-.3915259-4.3099013-1.1732277-1.0593406-.6804451-1.8914841-1.6214574-2.5019052-2.8243871l3.0343128-1.8536728c.4721868.8397556.9539541 1.4567465 1.4494079 1.8536728.6076838.4657808 1.3275975.6979962 2.155635.6979962 2.2172246 0 3.3272055-1.2299315 3.3272055-3.6911445V.0008101h3.7419086zM6.6037707 0c3.8390832 0 6.9377229 1.0841218 9.2931819 3.2496653 2.3445096 2.1776943 3.5188174 5.0466343 3.5188174 8.6054701 0 3.5493851-1.1619899 6.4021241-3.4832324 8.5555168-2.3581962 2.188495-5.4664165 3.2820674-9.328767 3.2820674H0V0zM44 .00054v23.6913696h-3.7063235V.00054H44zM6.3634345 3.2503403H3.742456v17.2109403h2.6209784c3.0110456 0 5.3158642-.8046533 6.9130871-2.41396 1.5055229-1.5080499 2.2582843-3.5723366 2.2582843-6.1915102 0-2.6299742-.7527614-4.6996613-2.2582843-6.2077112-1.5972229-1.598506-3.9020415-2.3977589-6.9130871-2.3977589z" id="b"/></defs><g fill="#FFF" fill-rule="evenodd"><path d="M178.98076 23.697367h3.6249085V3.5102766h6.9646968V.3013H172v3.2089767h6.98076V23.697367zm17.1768191 0h3.6597119V.3012999h-7.6728122v3.2423064h4.0131003V23.697367zM214.1643256 24c2.7427761 0 5.0183834-.9692256 6.829499-2.9063437.9544165-1.0185535 1.6906424-2.2610821 2.2086777-3.7275859.5501615-1.5798244.8259116-3.3649594.8259116-5.3580713 0-1.9931119-.2757501-3.7782468-.8259116-5.3580713-.5180353-1.4665037-1.2542612-2.714365-2.2086777-3.7449173C219.182709.9678926 216.9071017 0 214.1643256 0c-2.7548234 0-5.0371236.9678925-6.8469007 2.9050106-.9557551 1.0305521-1.6919809 2.2784135-2.2086776 3.7449172-.5515002 1.5798245-.8272502 3.3649594-.8272502 5.3580713 0 1.9931119.27575 3.7782469.8272502 5.3580713.5166967 1.4665038 1.2529225 2.7090324 2.2086776 3.7275859C209.127202 23.0307744 211.4095022 24 214.1643256 24zm0-3.224975c-1.8111157 0-3.2501026-.6945895-4.3169608-2.0824353-1.1806386-1.5451616-1.7709579-3.7729141-1.7709579-6.6845906 0-2.922342.5903193-5.1500944 1.7709579-6.6845906 1.0668582-1.3998445 2.5058451-2.0997667 4.3169608-2.0997667 1.7977298 0 3.2313623.6999223 4.2995592 2.0997667 1.1806386 1.5344962 1.7709579 3.7622486 1.7709579 6.6845906 0 2.9116765-.5903193 5.139429-1.7709579 6.6845906-1.0681969 1.3878458-2.5018294 2.0824353-4.2995592 2.0824353zM237.1359118 24c2.742776 0 5.0197219-.9692256 6.829499-2.9063437.955755-1.0185535 1.6919809-2.2610821 2.2086776-3.7275859C246.7255885 15.786246 247 14.001111 247 12.0079991c0-1.9931119-.2744115-3.7782468-.8259116-5.3580713-.5166967-1.4665037-1.2529226-2.714365-2.2086776-3.7449173C242.1556337.9678926 239.8786878 0 237.1359118 0c-2.7548234 0-5.0371237.9678925-6.8469008 2.9050106-.955755 1.0305521-1.6919809 2.2784135-2.2086776 3.7449172-.5515001 1.5798245-.8259116 3.3649594-.8259116 5.3580713 0 1.9931119.2744115 3.7782469.8259116 5.3580713.5166967 1.4665038 1.2529226 2.7090324 2.2086776 3.7275859C232.0987881 23.0307744 234.3810884 24 237.1359118 24zm0-3.224975c-1.8097771 0-3.2487641-.6945895-4.3169609-2.0824353-1.1806386-1.5451616-1.7709579-3.7729141-1.7709579-6.6845906 0-2.922342.5903193-5.1500944 1.7709579-6.6845906 1.0681968-1.3998445 2.5071838-2.0997667 4.3169609-2.0997667 1.7977297 0 3.2313623.6999223 4.2995591 2.0997667 1.1806386 1.5344962 1.7709579 3.7622486 1.7709579 6.6845906 0 2.9116765-.5903193 5.139429-1.7709579 6.6845906-1.0681968 1.3878458-2.5018294 2.0824353-4.2995591 2.0824353z"/><use xlink:href="#a" transform="translate(56)"/><use xlink:href="#b"/></g></svg>