<svg width="356" height="32" viewBox="0 0 356 32" xmlns="http://www.w3.org/2000/svg"><path d="M160.634418 0h-2.055594l-.731196 1.6433172L143.9997 31.9533906h5.439169l3.426587-7.8961573h13.48233l3.426587 7.8961573h5.439169L161.320811 1.6433172 160.634418 0zm-5.758172 19.2633297l4.706181-9.9977415 4.754569 9.9977415h-9.46075zm36.94334 7.5327657c-5.985775 0-10.829951-4.8386562-10.829951-10.8194002 0-5.934201 4.844176-10.81761 10.829951-10.81761 3.107584 0 5.94097 1.367641 7.906957 3.4692253l4.02158-3.2866345C200.823337 2.0997942 196.527558 0 191.819586 0c-8.819161 0-15.994922 7.167584-15.994922 15.9766952 0 8.8091113 7.175761 15.9766954 15.994922 15.9766954 5.347769 0 10.100546-2.6475667 12.978736-6.6645644l-3.974985-3.2866344c-1.965986 2.8767002-5.25637 4.7939036-9.003751 4.7939036zM234.795295.0447526h-26.642072v5.4329715h10.510948v26.5222092h5.620176V5.4777241h10.510948V.0447526zm4.876435 31.9551807h5.439169V.0465428h-5.439169v31.9533905zm26.937777-5.1590852c-5.985775 0-10.829951-4.8386563-10.829951-10.81761 0-5.9807439 4.844176-10.8194002 10.829951-10.8194002 5.987566 0 10.831743 4.8386563 10.831743 10.8194002 0 5.9789537-4.844177 10.81761-10.831743 10.81761zm0-26.7960955c-8.819161 0-15.994921 7.1675841-15.994921 15.9784855 0 8.8091111 7.17576 15.9766952 15.994921 15.9766952 8.820952 0 15.99492-7.1675841 15.99492-15.9766952 0-8.8109014-7.173968-15.9784855-15.99492-15.9784855zm50.723165 0h-5.439168v20.9531898L290.187006.0447526h-2.057386v31.9551807h5.43917l.044804-21.2270759 21.661692 21.2270759h2.057386V.0447526zm33.511041 20.8923466c0 1.7837499-.533332 3.2914218-1.645312 4.4799906-1.155553 1.2351796-2.666661 1.8751783-4.533324 1.8751783-1.866663 0-3.377771-.6399987-4.533324-1.8751783-1.110237-1.1885688-1.643569-2.6962407-1.643569-4.4799906 0-1.781957.533332-3.3362395 1.643569-4.5248085 1.155553-1.2799973 2.666661-1.919996 4.533324-1.919996 1.911979 0 3.423087.6399987 4.57864 1.9648138 1.066664 1.188569 1.599996 2.6980337 1.599996 4.4799907m2.222218-7.5885555c-1.955551-2.0114245-4.400862-3.0171367-7.288874-3.0171367-1.021348 0-2.04444.2294674-3.022216.6399987l.310239-.319103c.756426-.8228554 1.378647-1.5542824 1.777775-2.1960738L350.577047 0h-5.734192l-8.711093 13.0294406c-1.866663 2.8342798-2.799123 5.5305207-2.799123 8.0905154 0 3.0637471 1.066664 5.6237418 3.199993 7.7248018 2.133329 2.1046455 4.888879 3.1551755 8.132445 3.1551755 3.288882 0 6.044432-1.0971405 8.177761-3.2448111 2.089756-2.058035 3.15642-4.709458 3.15642-7.818023 0-3.0171365-.977775-5.5771312-2.933327-7.5885555M114.326208 26.8268c-6.098256 0-11.059581-4.8576-11.059581-10.8284 0-5.9709333 4.961325-10.8284 11.059581-10.8284 6.098257 0 11.059715 4.8574667 11.059715 10.8284 0 5.9708-4.961458 10.8284-11.059715 10.8284zm0-26.8268c-9.009984 0-16.3401055 7.1765333-16.3401055 15.9984 0 8.8217334 7.3301215 15.9984 16.3401055 15.9984 9.009985 0 16.34024-7.1766666 16.34024-15.9984 0-8.8218667-7.330255-15.9984-16.34024-15.9984zM16.3399726 26.8301333c-6.0981231 0-11.0595814-4.8576-11.0595814-10.8282666 0-5.9709334 4.9614583-10.8286667 11.0595814-10.8286667 6.0983899 0 11.0597149 4.8577333 11.0597149 10.8286667 0 5.9706666-4.961325 10.8282666-11.0597149 10.8282666zm0-26.8268C7.3299877.0033333 0 7.18 0 16.0018667 0 24.8232 7.3299877 32 16.3399726 32c9.009985 0 16.3402393-7.1768 16.3402393-15.9981333C32.6802119 7.18 25.3499576.0033333 16.3399726.0033333zM87.56492 3.7122667V3.7124l-10.2925161 8.4557333-.0001333.0001334L66.9797545 3.7124v-.0001333L63.69416 1.0129333h-1.9947967v30.7385334h5.2803912V10.4613333L73.1649441 15.5428l-.0001333.0001334 4.1075931 3.3745333 4.1074598-3.3745333-.0001334-.0001334 6.1851897-5.0814667v21.2901334h5.2803911V1.0129333h-1.9947966L87.56492 3.7122667zM56.0676395 19.7990666c-.9763984-2.2055999-3.9754602-5.2170666-9.9187835-7.6073333-.4601325-.2125333-2.4022626-1.1662666-3.4087942-2.5492-.868932-1.1934666-.5498658-2.8722666.6582655-3.7377333.4473326-.3205333.9686651-.5354667 1.5173307-.6085333C47.0415212 5.0125333 49.0168512 6.7236 49.9763163 7.73l4.0339932-3.3142667c-1.5711973-1.704-5.1546579-4.8412-9.8030503-4.2216-3.1119947.4145334-5.7615902 2.4726667-6.914655 5.3717334-1.3943977 3.5056.0807998 7.0906666 4.0471933 9.8352.8010652.5542666 2.8849284 1.5838666 2.8849284 1.5838666 6.7522554 2.6997334 7.1154547 4.6746666 7.0235883 5.9361333-.2871996 2.5178667-2.1374632 3.3902667-3.6434606 3.6782668-2.7863954.5301333-6.5946556-.6198667-8.148253-3.4693335l-.0285333.0149335-4.0498599 3.3272c2.5067958 3.7069333 6.8857218 5.4025333 10.8273151 5.4025333 3.0754616 0 7.8361202-1.4125334 9.5855841-5.6546667.9555984-2.2945333.9843983-5.0602666.2765329-6.4209334z" fill="#FFF"/></svg>